<svg height='100%' width='100%' viewBox="0 0 24 24" xmlns="http://www.w3.org/2000/svg"><path 
id="Postgres"
d="M23.6 14.7a.5.5 0 0 0-.1-.1c-.1-.3-.5-.3-1-.2-1.7.3-2.3.1-2.5 0 1.3-2.1 2.4-4.6 3-6.9.3-1 .8-3.5.1-4.7a1.6 1.6 0 0 0-.1-.2A6.8 6.8 0 0 0 17.5 0c-1.5 0-2.8.3-3.1.5a9.4 9.4 0 0 0-.5-.1 8 8 0 0 0-1.3-.1c-1.2 0-2.2.2-3 .8-1-.3-4.9-1.6-7.3 0C.9 2.2.3 4 .4 6.4a32.1 32.1 0 0 0 2.7 9.3c.6 1 1.1 1.6 1.7 1.8.5.2 1.2.2 1.9-.7a56 56 0 0 1 2-2.2l1.3.4a11 11 0 0 0-.2.3c-.4.4-.4.5-1.5.7-.3 0-1.2.2-1.2.8l.1.4c.2.4 1 .6 1 .6 1.4.3 2.5 0 3.4-.7 0 2.2 0 4.4.3 5.1.3.5.8 1.9 2.5 1.9h.8c1.8-.5 2.6-1.3 2.9-3a95.9 95.9 0 0 0 .6-4.2h.7c.9 0 2-.1 2.6-.4.6-.3 1.8-1 1.6-1.7zM2.4 12c-.8-2.5-1.2-5-1.2-5.6-.1-2.2.4-3.7 1.5-4.5 1.9-1.3 4.9-.5 6.1-.1-2 2-2 5.5-2 5.7v.4c.1.6.2 1.7 0 3A3.7 3.7 0 0 0 8 14a52 52 0 0 0-1.9 2.2c-.6.7-1 .6-1 .5-.5-.1-.9-.6-1.3-1.3-.5-.8-1-2-1.4-3.5zm6 5-.5-.1.5-.2c1.3-.2 1.5-.4 2-1l.3-.4a.4.4 0 0 0 0-.1c.3-.2.4-.1.5 0 .2 0 .3.2.4.4v.5c-1 1.2-2.3 1.2-3.2 1zm2-4v.2l-.3 1c-.7 0-1.3-.3-1.8-.8a3 3 0 0 1-.8-2.5c.2-1.3.1-2.4 0-3v-.3c.4-.2 1.7-1 2.7-.7.4 0 .7.4.8.9.6 2.7.1 3.8-.3 4.7l-.2.6zm7.4 4.6v.6l-.2.5-.1 1-.2 1c0 1.4-.9 2.2-2.4 2.6-1.5.3-1.8-.5-2-1.2a6.6 6.6 0 0 0-.1-.3c-.2-.6-.2-1.4-.2-2.5a8 8 0 0 0-.3-2.7v-.9a1.5 1.5 0 0 0 0-.3c-.2-.4-.4-.8-.8-1h-.7l.3-1 .2-.6c.5-1 1-2.2.4-5.2-.2-1-1-1.6-2.2-1.5-.7.1-1.4.4-1.7.6a5.7 5.7 0 0 0-.2 0c0-1 .4-3.1 1.7-4.4a4 4 0 0 1 .3-.3.4.4 0 0 0 .2 0c.7-.6 1.7-.9 2.8-.9l1.1.1c2 .4 3.3 1.4 4 2.4a8 8 0 0 1 1.5 2.4c-1.3-.1-2.2.2-2.7.8-1 1.4.6 4.2 1.3 5.5l.3.5c.2.6.6 1 .8 1.3l.2.3c-.4 0-1.1.3-1 1.7l-.2.8v.7zm1-1.6c-.1-.8.2-.9.5-1a2.9 2.9 0 0 0 .2 0c.7.5 1.7.5 3.1.2a4 4 0 0 1-2.7 1c-.7 0-1-.1-1.2-.2zm.5-9.2-.1 1-.1 1.1v1.4c.2.9.3 1.8-.2 2.7a3.5 3.5 0 0 1-.1-.4l-.4-.6c-.6-1.1-2-3.7-1.3-4.8.4-.5 1.4-.5 2.2-.4zm.2 7a12.4 12.4 0 0 0 0-.1h-.1c.7-1.3.6-2.5.5-3.5l-.1-1.2V7.8a6.9 6.9 0 0 0 .2-1.6c0-.5-.6-2-1.7-3.2a7.8 7.8 0 0 0-2.7-2c.5-.2 1.2-.3 2-.3 2 0 3.7.9 4.8 2.3a1 1 0 0 1 .1.1c.7 1.4-.3 6.3-3 10.6zm-8.8-6.1c0 .1-.3.4-.6.4a.8.8 0 0 1-.6-.3l-.1-.3v-.2h.7c.3 0 .6.1.6.4zm8-.5-.2.4-.4.2a.5.5 0 0 1-.1 0c-.3 0-.5-.3-.6-.4 0-.2.3-.3.6-.3l.6.1z"/></svg>