<svg height='100%' width='100%' viewBox="0 0 24 24" xmlns="http://www.w3.org/2000/svg"><path 
id="Solidjs"
d="M11.56.79a9.08 9.08 0 0 0-1.78.2l-.46.15c-.9.3-1.65.76-2.1 1.35l-.3.45L4.9 6.47c.42-.39.97-.7 1.64-.9l.61-.15a8.82 8.82 0 0 1 1.78-.2c2.92-.06 6.04 1.14 8.43 2.35 2.31 1.18 3.88 2.32 3.98 2.4L24 5.51a30.8 30.8 0 0 0-4-2.39C17.63 1.93 14.5.73 11.57.8zM8.92 5.37a8.63 8.63 0 0 0-1.74.2l-.6.15a3.46 3.46 0 0 0-2.44 2.1c-.33.96-.19 2.07.49 3.12.33.43.75.82 1.22 1.15L12.33 10a6.94 6.94 0 0 1 6.01 1.01l2.85-.96c-.17-.12-1.67-1.2-3.91-2.34-2.38-1.2-5.48-2.4-8.36-2.34zm5.44 4.5a6.8 6.8 0 0 0-1.99.28l-9.43 3.04L0 18.33l9.28-2.99a6.95 6.95 0 0 1 7.4 2.32c.7.9.9 1.9.66 2.8l2.58-4.63c.6-1.04.45-2.22-.3-3.42a6.8 6.8 0 0 0-5.26-2.55zm-3.03 5.33a6.79 6.79 0 0 0-2 .29l-9.32 3c.17.13 2.02 1.5 4.68 2.77 2.8 1.33 6.37 2.47 9.47 1.71l.46-.15a3.63 3.63 0 0 0 2.49-2.09c.35-.93.2-2-.54-2.98a6.8 6.8 0 0 0-5.24-2.55z"/></svg>